<svg xmlns="http://www.w3.org/2000/svg" viewBox="0 0 398.08 101.63"><defs><style>.cls-1{fill:#fff;}</style></defs><title>Asset 5Kakunin_Biale</title><g id="Layer_2" data-name="Layer 2"><g id="Layer_1-2" data-name="Layer 1"><path class="cls-1" d="M53.49,77.52c2.57,2.13,18,15.1,23.16,24.11L104,0C97.53,9.64,73.51,45.52,53.49,77.52ZM52.11,93.76A39.85,39.85,0,0,1,74,100.41C65.44,90.32,34.59,57,0,53.45c5.39,3.72,22.78,17,35.13,41.31.13.26.24.5.35.71.88,1.8.88,1.8,2.6,1,.33-.16.66-.31,1-.44A38.34,38.34,0,0,1,52.11,93.76Z"/><path class="cls-1" d="M165.92,57.16q3.35,3.18,5.41,10.35l5.33,20.37h-4.13l-5.34-20.13a19.52,19.52,0,0,0-2.62-6.41,9.3,9.3,0,0,0-4.3-3.34A23.37,23.37,0,0,0,153,56.68L140,69.82V87.88h-4.13V32.17H140V64.8l32.08-32.63h5.25L156.21,53.42Q162.57,54,165.92,57.16Z"/><path class="cls-1" d="M213.51,84.54a6.36,6.36,0,0,0,1.68,1.83l-2.63,2.39A6.54,6.54,0,0,1,210,86.21a8.77,8.77,0,0,1-.71-3.9V82a13.47,13.47,0,0,1-5.81,5,20.62,20.62,0,0,1-8.76,1.75c-3.93,0-7-.94-9.11-2.83s-3.23-4.55-3.23-8q0-9.95,13.46-11.22l6.76-.64a12.42,12.42,0,0,0,5.25-1.35,3.62,3.62,0,0,0,1.44-3.26,7.86,7.86,0,0,0-3-6.49c-2-1.56-4.64-2.35-8-2.35a17.94,17.94,0,0,0-7,1.16,11,11,0,0,0-4.58,3.86L184,55.57q3.66-6,14.32-6,7,0,10.91,3.22t3.9,9V82.47A4.72,4.72,0,0,0,213.51,84.54Zm-8.07-2.15a10.1,10.1,0,0,0,3.86-8.28v-7q-1.92,1.42-7.09,1.91l-5.89.48q-5.17.48-7.72,2.62a7.21,7.21,0,0,0-2.54,5.81,6.81,6.81,0,0,0,2.38,5.61c1.6,1.31,3.88,1.95,6.85,1.95Q201.58,85.49,205.44,82.39Z"/><path class="cls-1" d="M247.86,67.07a17,17,0,0,1,3.62,7.44l3.34,13.37h-3.9L247.5,74.51A10.41,10.41,0,0,0,244.55,69a10.35,10.35,0,0,0-6-2l-8.92,8.83v12.1h-3.82V37a4.63,4.63,0,0,0-.4-2.07,6.15,6.15,0,0,0-1.67-1.83l2.63-2.3a6.42,6.42,0,0,1,2.54,2.54,9,9,0,0,1,.72,4V71l20.54-20.53h5L241.45,64A10.39,10.39,0,0,1,247.86,67.07Z"/><path class="cls-1" d="M294.1,84.54a7.77,7.77,0,0,0,1.71,1.91l-2.63,2.31a6.64,6.64,0,0,1-2.66-2.59,8.8,8.8,0,0,1-.76-4V79.21a15.85,15.85,0,0,1-5.65,7.08,15.1,15.1,0,0,1-8.67,2.47q-5.65,0-8.76-3.54t-3.1-9.83V50.48h3.9V75.23q0,4.93,2.34,7.6a8.49,8.49,0,0,0,6.73,2.66,11.32,11.32,0,0,0,8.32-3.58,19.24,19.24,0,0,0,4.89-9.55V50.48h3.9v32A4.3,4.3,0,0,0,294.1,84.54Z"/><path class="cls-1" d="M334,53q3.11,3.39,3.11,9.27V87.88H333.3V63.05q0-4.86-2.27-7.56a7.91,7.91,0,0,0-6.41-2.71,11.35,11.35,0,0,0-8.47,3.78,19.47,19.47,0,0,0-4.82,10.15V87.88h-3.82V55.81a4.1,4.1,0,0,0-.44-2,8.22,8.22,0,0,0-1.63-1.91l2.47-2.31a6.63,6.63,0,0,1,2.66,2.55,8.53,8.53,0,0,1,.76,4v3.42A16.53,16.53,0,0,1,317,52.19a14.49,14.49,0,0,1,8.6-2.59A10.89,10.89,0,0,1,334,53Z"/><path class="cls-1" d="M350.25,40.13a3.09,3.09,0,1,1,2.15.87A2.93,2.93,0,0,1,350.25,40.13Zm1,46a8.67,8.67,0,0,1-.75-4V50.48h3.82v32a4,4,0,0,0,.44,2,8.22,8.22,0,0,0,1.63,1.91l-2.47,2.39A7.3,7.3,0,0,1,351.24,86.13Z"/><path class="cls-1" d="M395,53q3.11,3.39,3.1,9.27V87.88h-3.82V63.05q0-4.86-2.26-7.56a7.93,7.93,0,0,0-6.41-2.71,11.39,11.39,0,0,0-8.48,3.78,19.46,19.46,0,0,0-4.81,10.15V87.88h-3.82V55.81a4.1,4.1,0,0,0-.44-2,8.48,8.48,0,0,0-1.63-1.91l2.46-2.31a6.6,6.6,0,0,1,2.67,2.55,8.66,8.66,0,0,1,.76,4v3.42A16.46,16.46,0,0,1,378,52.19a14.46,14.46,0,0,1,8.59-2.59A10.9,10.9,0,0,1,395,53Z"/></g></g></svg>