<svg xmlns="http://www.w3.org/2000/svg" viewBox="0 0 400 390.84"><defs><style>.cls-1{fill:#fff;}</style></defs><title>Asset 6Kakunin_Biale</title><g id="Layer_2" data-name="Layer 2"><g id="Layer_1-2" data-name="Layer 1"><path class="cls-1" d="M205.72,298.15c9.89,8.18,69.16,58.06,89.08,92.69L400,0C375.07,37.07,282.71,175.06,205.72,298.15Zm-5.33,62.45c24.06,0,53.76,5.72,84.36,25.55C251.67,347.36,133,219.15,0,205.57c20.74,14.31,87.62,65.48,135.09,158.86.5,1,.95,1.91,1.37,2.75,3.39,6.91,3.39,6.91,10,3.69a41.63,41.63,0,0,1,3.87-1.7A147.53,147.53,0,0,1,200.39,360.6Z"/></g></g></svg>