<svg xmlns="http://www.w3.org/2000/svg" viewBox="0 0 398.08 101.63"><g data-name="Layer 2"><path d="M53.49 77.52c2.57 2.13 18 15.1 23.16 24.11L104 0c-6.47 9.64-30.49 45.52-50.51 77.52zm-1.38 16.24A39.85 39.85 0 0174 100.41C65.44 90.32 34.59 57 0 53.45c5.39 3.72 22.78 17 35.13 41.31.13.26.24.5.35.71.88 1.8.88 1.8 2.6 1 .33-.16.66-.31 1-.44a38.34 38.34 0 0113.03-2.27zm113.81-36.6q3.35 3.18 5.41 10.35l5.33 20.37h-4.13l-5.34-20.13a19.52 19.52 0 00-2.62-6.41 9.3 9.3 0 00-4.3-3.34 23.37 23.37 0 00-7.27-1.32l-13 13.14v18.06h-4.13V32.17H140V64.8l32.08-32.63h5.25l-21.12 21.25q6.36.58 9.71 3.74zm47.59 27.38a6.36 6.36 0 001.68 1.83l-2.63 2.39a6.54 6.54 0 01-2.56-2.55 8.77 8.77 0 01-.71-3.9V82a13.47 13.47 0 01-5.81 5 20.62 20.62 0 01-8.76 1.75c-3.93 0-7-.94-9.11-2.83s-3.23-4.55-3.23-8q0-9.95 13.46-11.22l6.76-.64a12.42 12.42 0 005.25-1.35 3.62 3.62 0 001.44-3.26 7.86 7.86 0 00-3-6.49c-2-1.56-4.64-2.35-8-2.35a17.94 17.94 0 00-7 1.16 11 11 0 00-4.58 3.86L184 55.57q3.66-6 14.32-6 7 0 10.91 3.22t3.9 9v20.68a4.72 4.72 0 00.38 2.07zm-8.07-2.15a10.1 10.1 0 003.86-8.28v-7q-1.92 1.42-7.09 1.91l-5.89.48q-5.17.48-7.72 2.62a7.21 7.21 0 00-2.54 5.81 6.81 6.81 0 002.38 5.61c1.6 1.31 3.88 1.95 6.85 1.95q6.29 0 10.15-3.1zm42.42-15.32a17 17 0 013.62 7.44l3.34 13.37h-3.9l-3.42-13.37a10.41 10.41 0 00-2.95-5.51 10.35 10.35 0 00-6-2l-8.92 8.83v12.1h-3.82V37a4.63 4.63 0 00-.4-2.07 6.15 6.15 0 00-1.67-1.83l2.63-2.3a6.42 6.42 0 012.54 2.54 9 9 0 01.72 4V71l20.54-20.53h5L241.45 64a10.39 10.39 0 016.41 3.07zm46.24 17.47a7.77 7.77 0 001.71 1.91l-2.63 2.31a6.64 6.64 0 01-2.66-2.59 8.8 8.8 0 01-.76-4v-2.96a15.85 15.85 0 01-5.65 7.08 15.1 15.1 0 01-8.67 2.47q-5.65 0-8.76-3.54t-3.1-9.83V50.48h3.9v24.75q0 4.93 2.34 7.6a8.49 8.49 0 006.73 2.66 11.32 11.32 0 008.32-3.58 19.24 19.24 0 004.89-9.55V50.48h3.9v32a4.3 4.3 0 00.44 2.06zM334 53q3.11 3.39 3.11 9.27v25.61h-3.81V63.05q0-4.86-2.27-7.56a7.91 7.91 0 00-6.41-2.71 11.35 11.35 0 00-8.47 3.78 19.47 19.47 0 00-4.82 10.15v21.17h-3.82V55.81a4.1 4.1 0 00-.44-2 8.22 8.22 0 00-1.63-1.91l2.47-2.31a6.63 6.63 0 012.66 2.55 8.53 8.53 0 01.76 4v3.42a16.53 16.53 0 015.67-7.37 14.49 14.49 0 018.6-2.59A10.89 10.89 0 01334 53zm16.25-12.87a3.09 3.09 0 112.15.87 2.93 2.93 0 01-2.15-.87zm1 46a8.67 8.67 0 01-.75-4V50.48h3.82v32a4 4 0 00.44 2 8.22 8.22 0 001.63 1.91l-2.47 2.39a7.3 7.3 0 01-2.68-2.65zM395 53q3.11 3.39 3.1 9.27v25.61h-3.82V63.05q0-4.86-2.26-7.56a7.93 7.93 0 00-6.41-2.71 11.39 11.39 0 00-8.48 3.78 19.46 19.46 0 00-4.81 10.15v21.17h-3.82V55.81a4.1 4.1 0 00-.44-2 8.48 8.48 0 00-1.63-1.91l2.46-2.31a6.6 6.6 0 012.67 2.55 8.66 8.66 0 01.76 4v3.42a16.46 16.46 0 015.68-7.37 14.46 14.46 0 018.59-2.59A10.9 10.9 0 01395 53z" fill="#fff" data-name="Layer 1"/></g></svg>